<svg width="967" height="943" viewBox="0 0 967 943" fill="none" xmlns="http://www.w3.org/2000/svg">
<g clip-path="url(#clip0_55_12)">
<rect width="967" height="943" fill="white"/>
<rect width="967" height="943" fill="url(#paint0_linear_55_12)"/>
<path d="M201.752 309.6H354.84C402.285 309.6 437.784 316.085 461.336 329.056C485.229 341.685 497.176 363.189 497.176 393.568C497.176 440.331 469.016 468.32 412.696 477.536V478.56C480.963 487.093 515.096 516.789 515.096 567.648C515.096 604.853 501.101 630.965 473.112 645.984C445.123 660.661 404.845 668 352.28 668H201.752V658.272H235.032V319.328H201.752V309.6ZM334.872 486.752V658.272H358.936C377.709 658.272 390.851 651.787 398.36 638.816C405.869 625.845 409.624 606.731 409.624 581.472V554.336C409.624 531.808 405.016 514.912 395.8 503.648C386.584 492.384 370.2 486.752 346.648 486.752H334.872ZM334.872 319.328V477.024H348.184C365.933 477.024 378.221 471.733 385.048 461.152C392.216 450.229 395.8 433.675 395.8 411.488V387.424C395.8 362.165 392.728 344.587 386.584 334.688C380.44 324.448 368.664 319.328 351.256 319.328H334.872ZM660.596 314.208L672.372 313.696C679.54 313.696 686.196 314.208 692.34 315.232V273.76H706.676V317.28C713.161 318.645 721.865 321.035 732.788 324.448C743.711 327.52 751.561 329.056 756.34 329.056C761.46 329.056 765.556 325.643 768.628 318.816H773.748L777.332 419.68H769.652C748.148 378.379 727.156 350.901 706.676 337.248V442.72C734.665 451.936 756.681 464.736 772.724 481.12C789.108 497.504 797.3 521.568 797.3 553.312C797.3 585.056 789.108 611.509 772.724 632.672C756.681 653.493 734.665 666.293 706.676 671.072V704.352H692.34V672.608C690.292 672.949 686.196 673.12 680.052 673.12C674.249 673.12 667.764 672.608 660.596 671.584V704.352H646.26V670.048L585.332 658.272C579.871 658.272 575.263 663.221 571.508 673.12H564.852L560.244 554.336H568.436C589.599 600.416 615.54 632.331 646.26 650.08V534.88C618.953 525.323 597.961 512.181 583.284 495.456C568.948 478.389 561.78 455.52 561.78 426.848C561.78 397.835 569.119 373.429 583.796 353.632C598.815 333.835 619.636 321.376 646.26 316.256V273.76H660.596V314.208ZM688.244 662.368H692.34V550.24C684.831 547.168 674.42 543.584 661.108 539.488H660.596V656.736C669.812 660.491 679.028 662.368 688.244 662.368ZM660.596 428.896C674.249 433.333 684.831 436.405 692.34 438.112V329.568C683.807 325.813 676.639 323.936 670.836 323.936C665.033 323.936 661.62 324.107 660.596 324.448V428.896ZM748.66 610.144C748.66 587.275 734.665 569.184 706.676 555.872V660.32C718.964 657.248 729.033 651.445 736.884 642.912C744.735 634.379 748.66 623.456 748.66 610.144ZM607.86 374.624C607.86 396.128 620.66 412.341 646.26 423.264V326.496C634.655 329.909 625.268 335.883 618.1 344.416C611.273 352.949 607.86 363.019 607.86 374.624Z" fill="#193831"/>
<path d="M172.752 285.6H325.84C373.285 285.6 408.784 292.085 432.336 305.056C456.229 317.685 468.176 339.189 468.176 369.568C468.176 416.331 440.016 444.32 383.696 453.536V454.56C451.963 463.093 486.096 492.789 486.096 543.648C486.096 580.853 472.101 606.965 444.112 621.984C416.123 636.661 375.845 644 323.28 644H172.752V634.272H206.032V295.328H172.752V285.6ZM305.872 462.752V634.272H329.936C348.709 634.272 361.851 627.787 369.36 614.816C376.869 601.845 380.624 582.731 380.624 557.472V530.336C380.624 507.808 376.016 490.912 366.8 479.648C357.584 468.384 341.2 462.752 317.648 462.752H305.872ZM305.872 295.328V453.024H319.184C336.933 453.024 349.221 447.733 356.048 437.152C363.216 426.229 366.8 409.675 366.8 387.488V363.424C366.8 338.165 363.728 320.587 357.584 310.688C351.44 300.448 339.664 295.328 322.256 295.328H305.872ZM663.4 638.368C680.467 638.368 695.485 633.76 708.456 624.544C721.768 615.328 728.424 601.504 728.424 583.072C728.424 564.299 721.256 549.963 706.92 540.064C692.925 530.165 672.787 521.632 646.504 514.464C620.563 506.955 601.619 500.469 589.672 495.008C578.067 489.547 566.973 482.379 556.392 473.504C535.229 455.755 524.648 428.277 524.648 391.072C524.648 360.693 535.4 334.581 556.904 312.736C578.749 290.891 608.445 279.968 645.992 279.968C664.083 279.968 682.856 282.699 702.312 288.16C722.109 293.28 734.397 295.84 739.176 295.84C743.955 295.84 748.221 292.427 751.976 285.6H757.608L761.192 389.024H753C736.616 359.328 719.379 335.605 701.288 317.856C683.539 299.765 664.083 290.72 642.92 290.72C622.099 290.72 605.885 295.669 594.28 305.568C582.675 315.125 576.872 328.096 576.872 344.48C576.872 360.523 583.699 372.981 597.352 381.856C611.347 390.389 628.413 397.387 648.552 402.848C668.691 408.309 681.832 412.064 687.976 414.112C694.461 416.16 702.312 419.061 711.528 422.816C721.085 426.229 728.765 429.984 734.568 434.08C740.712 437.835 747.027 442.784 753.512 448.928C760.339 454.731 765.629 461.216 769.384 468.384C778.6 484.768 783.208 504.224 783.208 526.752C783.208 563.616 771.603 593.312 748.392 615.84C725.523 638.027 695.315 649.12 657.768 649.12C638.312 649.12 615.955 646.56 590.696 641.44C565.779 636.32 551.955 633.76 549.224 633.76C544.445 633.76 539.837 638.88 535.4 649.12H528.232L523.112 527.264H531.816C546.835 556.96 565.949 582.901 589.16 605.088C612.712 627.275 637.459 638.368 663.4 638.368Z" fill="url(#paint1_linear_55_12)"/>
</g>
<defs>
<linearGradient id="paint0_linear_55_12" x1="967" y1="943" x2="-8.50002" y2="-1.13158e-05" gradientUnits="userSpaceOnUse">
<stop/>
<stop offset="1" stop-color="#4AA791"/>
</linearGradient>
<linearGradient id="paint1_linear_55_12" x1="187.919" y1="193.867" x2="657.262" y2="676.387" gradientUnits="userSpaceOnUse">
<stop stop-color="#55B49D"/>
<stop offset="1" stop-color="#14362E"/>
</linearGradient>
<clipPath id="clip0_55_12">
<rect width="967" height="943" fill="white"/>
</clipPath>
</defs>
</svg>
