<svg width="750" height="667" viewBox="0 0 750 667" fill="none" xmlns="http://www.w3.org/2000/svg">
<g clip-path="url(#clip0_55_21)">
<path d="M80.752 183.6H233.84C281.285 183.6 316.784 190.085 340.336 203.056C364.229 215.685 376.176 237.189 376.176 267.568C376.176 314.331 348.016 342.32 291.696 351.536V352.56C359.963 361.093 394.096 390.789 394.096 441.648C394.096 478.853 380.101 504.965 352.112 519.984C324.123 534.661 283.845 542 231.28 542H80.752V532.272H114.032V193.328H80.752V183.6ZM213.872 360.752V532.272H237.936C256.709 532.272 269.851 525.787 277.36 512.816C284.869 499.845 288.624 480.731 288.624 455.472V428.336C288.624 405.808 284.016 388.912 274.8 377.648C265.584 366.384 249.2 360.752 225.648 360.752H213.872ZM213.872 193.328V351.024H227.184C244.933 351.024 257.221 345.733 264.048 335.152C271.216 324.229 274.8 307.675 274.8 285.488V261.424C274.8 236.165 271.728 218.587 265.584 208.688C259.44 198.448 247.664 193.328 230.256 193.328H213.872ZM539.596 188.208L551.372 187.696C558.54 187.696 565.196 188.208 571.34 189.232V147.76H585.676V191.28C592.161 192.645 600.865 195.035 611.788 198.448C622.711 201.52 630.561 203.056 635.34 203.056C640.46 203.056 644.556 199.643 647.628 192.816H652.748L656.332 293.68H648.652C627.148 252.379 606.156 224.901 585.676 211.248V316.72C613.665 325.936 635.681 338.736 651.724 355.12C668.108 371.504 676.3 395.568 676.3 427.312C676.3 459.056 668.108 485.509 651.724 506.672C635.681 527.493 613.665 540.293 585.676 545.072V578.352H571.34V546.608C569.292 546.949 565.196 547.12 559.052 547.12C553.249 547.12 546.764 546.608 539.596 545.584V578.352H525.26V544.048L464.332 532.272C458.871 532.272 454.263 537.221 450.508 547.12H443.852L439.244 428.336H447.436C468.599 474.416 494.54 506.331 525.26 524.08V408.88C497.953 399.323 476.961 386.181 462.284 369.456C447.948 352.389 440.78 329.52 440.78 300.848C440.78 271.835 448.119 247.429 462.796 227.632C477.815 207.835 498.636 195.376 525.26 190.256V147.76H539.596V188.208ZM567.244 536.368H571.34V424.24C563.831 421.168 553.42 417.584 540.108 413.488H539.596V530.736C548.812 534.491 558.028 536.368 567.244 536.368ZM539.596 302.896C553.249 307.333 563.831 310.405 571.34 312.112V203.568C562.807 199.813 555.639 197.936 549.836 197.936C544.033 197.936 540.62 198.107 539.596 198.448V302.896ZM627.66 484.144C627.66 461.275 613.665 443.184 585.676 429.872V534.32C597.964 531.248 608.033 525.445 615.884 516.912C623.735 508.379 627.66 497.456 627.66 484.144ZM486.86 248.624C486.86 270.128 499.66 286.341 525.26 297.264V200.496C513.655 203.909 504.268 209.883 497.1 218.416C490.273 226.949 486.86 237.019 486.86 248.624Z" fill="#193831" fill-opacity="0.5"/>
<path d="M64.752 159.6H217.84C265.285 159.6 300.784 166.085 324.336 179.056C348.229 191.685 360.176 213.189 360.176 243.568C360.176 290.331 332.016 318.32 275.696 327.536V328.56C343.963 337.093 378.096 366.789 378.096 417.648C378.096 454.853 364.101 480.965 336.112 495.984C308.123 510.661 267.845 518 215.28 518H64.752V508.272H98.032V169.328H64.752V159.6ZM197.872 336.752V508.272H221.936C240.709 508.272 253.851 501.787 261.36 488.816C268.869 475.845 272.624 456.731 272.624 431.472V404.336C272.624 381.808 268.016 364.912 258.8 353.648C249.584 342.384 233.2 336.752 209.648 336.752H197.872ZM197.872 169.328V327.024H211.184C228.933 327.024 241.221 321.733 248.048 311.152C255.216 300.229 258.8 283.675 258.8 261.488V237.424C258.8 212.165 255.728 194.587 249.584 184.688C243.44 174.448 231.664 169.328 214.256 169.328H197.872ZM555.4 512.368C572.467 512.368 587.485 507.76 600.456 498.544C613.768 489.328 620.424 475.504 620.424 457.072C620.424 438.299 613.256 423.963 598.92 414.064C584.925 404.165 564.787 395.632 538.504 388.464C512.563 380.955 493.619 374.469 481.672 369.008C470.067 363.547 458.973 356.379 448.392 347.504C427.229 329.755 416.648 302.277 416.648 265.072C416.648 234.693 427.4 208.581 448.904 186.736C470.749 164.891 500.445 153.968 537.992 153.968C556.083 153.968 574.856 156.699 594.312 162.16C614.109 167.28 626.397 169.84 631.176 169.84C635.955 169.84 640.221 166.427 643.976 159.6H649.608L653.192 263.024H645C628.616 233.328 611.379 209.605 593.288 191.856C575.539 173.765 556.083 164.72 534.92 164.72C514.099 164.72 497.885 169.669 486.28 179.568C474.675 189.125 468.872 202.096 468.872 218.48C468.872 234.523 475.699 246.981 489.352 255.856C503.347 264.389 520.413 271.387 540.552 276.848C560.691 282.309 573.832 286.064 579.976 288.112C586.461 290.16 594.312 293.061 603.528 296.816C613.085 300.229 620.765 303.984 626.568 308.08C632.712 311.835 639.027 316.784 645.512 322.928C652.339 328.731 657.629 335.216 661.384 342.384C670.6 358.768 675.208 378.224 675.208 400.752C675.208 437.616 663.603 467.312 640.392 489.84C617.523 512.027 587.315 523.12 549.768 523.12C530.312 523.12 507.955 520.56 482.696 515.44C457.779 510.32 443.955 507.76 441.224 507.76C436.445 507.76 431.837 512.88 427.4 523.12H420.232L415.112 401.264H423.816C438.835 430.96 457.949 456.901 481.16 479.088C504.712 501.275 529.459 512.368 555.4 512.368Z" fill="url(#paint0_linear_55_21)"/>
</g>
<defs>
<linearGradient id="paint0_linear_55_21" x1="79.9193" y1="67.8671" x2="549.262" y2="550.387" gradientUnits="userSpaceOnUse">
<stop stop-color="#55B49D"/>
<stop offset="1" stop-color="#14362E"/>
</linearGradient>
<clipPath id="clip0_55_21">
<rect width="750" height="667" fill="white"/>
</clipPath>
</defs>
</svg>
