<svg width="174" height="162" viewBox="0 0 174 162" fill="none" xmlns="http://www.w3.org/2000/svg">
<g clip-path="url(#clip0_37_9)">
<g filter="url(#filter0_d_37_9)">
<path d="M45.2727 116L45.2727 22.9091L77.8182 22.9091C84.303 22.9091 89.6515 24.0303 93.8636 26.2727C98.0758 28.4848 101.212 31.4697 103.273 35.2273C105.333 38.9545 106.364 43.0909 106.364 47.6364C106.364 51.6364 105.652 54.9394 104.227 57.5455C102.833 60.1515 100.985 62.2121 98.6818 63.7273C96.4091 65.2424 93.9394 66.3636 91.2727 67.0909V68C94.1212 68.1818 96.9849 69.1818 99.8636 71C102.742 72.8182 105.152 75.4242 107.091 78.8182C109.03 82.2121 110 86.3636 110 91.2727C110 95.9394 108.939 100.136 106.818 103.864C104.697 107.591 101.348 110.545 96.7727 112.727C92.197 114.909 86.2424 116 78.9091 116H45.2727ZM56.5455 106H78.9091C86.2727 106 91.5 104.576 94.5909 101.727C97.7121 98.8485 99.2727 95.3636 99.2727 91.2727C99.2727 88.1212 98.4697 85.2121 96.8636 82.5455C95.2576 79.8485 92.9697 77.697 90 76.0909C87.0303 74.4545 83.5152 73.6364 79.4545 73.6364H56.5455V106ZM56.5455 63.8182H77.4545C80.8485 63.8182 83.9091 63.1515 86.6364 61.8182C89.3939 60.4848 91.5758 58.6061 93.1818 56.1818C94.8182 53.7576 95.6364 50.9091 95.6364 47.6364C95.6364 43.5455 94.2121 40.0758 91.3636 37.2273C88.5152 34.3485 84 32.9091 77.8182 32.9091L56.5455 32.9091L56.5455 63.8182Z" fill="white"/>
</g>
<g filter="url(#filter1_d_37_9)">
<path d="M120.182 69.1818C119.636 64.5758 117.424 61 113.545 58.4545C109.667 55.9091 104.909 54.6364 99.2727 54.6364C95.1515 54.6364 91.5455 55.303 88.4545 56.6364C85.3939 57.9697 83 59.803 81.2727 62.1364C79.5758 64.4697 78.7273 67.1212 78.7273 70.0909C78.7273 72.5758 79.3182 74.7121 80.5 76.5C81.7121 78.2576 83.2576 79.7273 85.1364 80.9091C87.0152 82.0606 88.9848 83.0151 91.0455 83.7727C93.1061 84.5 95 85.0909 96.7273 85.5455L106.182 88.0909C108.606 88.7273 111.303 89.6061 114.273 90.7273C117.273 91.8485 120.136 93.3788 122.864 95.3182C125.621 97.2273 127.894 99.6818 129.682 102.682C131.47 105.682 132.364 109.364 132.364 113.727C132.364 118.758 131.045 123.303 128.409 127.364C125.803 131.424 121.985 134.652 116.955 137.045C111.955 139.439 105.879 140.636 98.7273 140.636C92.0606 140.636 86.2879 139.561 81.4091 137.409C76.5606 135.258 72.7424 132.258 69.9545 128.409C67.197 124.561 65.6364 120.091 65.2727 115H76.9091C77.2121 118.515 78.3939 121.424 80.4545 123.727C82.5455 126 85.1818 127.697 88.3636 128.818C91.5758 129.909 95.0303 130.455 98.7273 130.455C103.03 130.455 106.894 129.758 110.318 128.364C113.742 126.939 116.455 124.97 118.455 122.455C120.455 119.909 121.455 116.939 121.455 113.545C121.455 110.455 120.591 107.939 118.864 106C117.136 104.061 114.864 102.485 112.045 101.273C109.227 100.061 106.182 99 102.909 98.0909L91.4545 94.8182C84.1818 92.7273 78.4242 89.7424 74.1818 85.8636C69.9394 81.9848 67.8182 76.9091 67.8182 70.6364C67.8182 65.4242 69.2273 60.8788 72.0455 57C74.8939 53.0909 78.7121 50.0606 83.5 47.9091C88.3182 45.7273 93.697 44.6364 99.6364 44.6364C105.636 44.6364 110.97 45.7121 115.636 47.8636C120.303 49.9848 124 52.8939 126.727 56.5909C129.485 60.2879 130.939 64.4848 131.091 69.1818H120.182Z" fill="white"/>
</g>
</g>
<defs>
<filter id="filter0_d_37_9" x="37.2727" y="22.9091" width="80.7273" height="109.091" filterUnits="userSpaceOnUse" color-interpolation-filters="sRGB">
<feFlood flood-opacity="0" result="BackgroundImageFix"/>
<feColorMatrix in="SourceAlpha" type="matrix" values="0 0 0 0 0 0 0 0 0 0 0 0 0 0 0 0 0 0 127 0" result="hardAlpha"/>
<feOffset dy="8"/>
<feGaussianBlur stdDeviation="4"/>
<feComposite in2="hardAlpha" operator="out"/>
<feColorMatrix type="matrix" values="0 0 0 0 0 0 0 0 0 0 0 0 0 0 0 0 0 0 0.25 0"/>
<feBlend mode="normal" in2="BackgroundImageFix" result="effect1_dropShadow_37_9"/>
<feBlend mode="normal" in="SourceGraphic" in2="effect1_dropShadow_37_9" result="shape"/>
</filter>
<filter id="filter1_d_37_9" x="57.2727" y="44.6364" width="83.0909" height="112" filterUnits="userSpaceOnUse" color-interpolation-filters="sRGB">
<feFlood flood-opacity="0" result="BackgroundImageFix"/>
<feColorMatrix in="SourceAlpha" type="matrix" values="0 0 0 0 0 0 0 0 0 0 0 0 0 0 0 0 0 0 127 0" result="hardAlpha"/>
<feOffset dy="8"/>
<feGaussianBlur stdDeviation="4"/>
<feComposite in2="hardAlpha" operator="out"/>
<feColorMatrix type="matrix" values="0 0 0 0 0 0 0 0 0 0 0 0 0 0 0 0 0 0 0.25 0"/>
<feBlend mode="normal" in2="BackgroundImageFix" result="effect1_dropShadow_37_9"/>
<feBlend mode="normal" in="SourceGraphic" in2="effect1_dropShadow_37_9" result="shape"/>
</filter>
<clipPath id="clip0_37_9">
<rect width="174" height="162" rx="81" fill="white"/>
</clipPath>
</defs>
</svg>
